<svg xmlns="http://www.w3.org/2000/svg" xmlns:xlink="http://www.w3.org/1999/xlink" viewBox="0 0 500 500"><defs><clipPath id="freepik--clip-path--inject-52"><path d="M331.87,397.05H185.19V139.83H220l3.91,3.24a7.56,7.56,0,0,0,4.86,1.76h61.34a7.64,7.64,0,0,0,5-1.9l3.53-3.1h33.24Z" style="fill:#fff;stroke:#263238;stroke-linecap:round;stroke-linejoin:round;stroke-width:0.938618px"></path></clipPath><clipPath id="freepik--clip-path-2--inject-52"><circle cx="258.69" cy="230.23" r="56.94" transform="translate(-87.03 250.35) rotate(-45)" style="fill:#F0C420"></circle></clipPath></defs><g id="freepik--background-simple--inject-52"><path d="M400.86,199.5a372.7,372.7,0,0,0-9.36-38.24c-11.4-36.39-34.09-73.21-73.06-85.59-28.77-9.13-59.82-2.83-84.13,15.78-38.13,29.18-65.88,69-107.6,94.27-34.83,21.11-53.06,55.21-41.35,103.41S136.19,365.41,179,362c35.58-2.87,72.78.2,103.54,17.47,27.49,15.43,76.06,2,116.24-40.15,23.41-24.57,21.14-55.81,13.51-85C407.57,236.24,404.51,217.8,400.86,199.5Z" style="fill:#F0C420"></path><path d="M400.86,199.5a372.7,372.7,0,0,0-9.36-38.24c-11.4-36.39-34.09-73.21-73.06-85.59-28.77-9.13-59.82-2.83-84.13,15.78-38.13,29.18-65.88,69-107.6,94.27-34.83,21.11-53.06,55.21-41.35,103.41S136.19,365.41,179,362c35.58-2.87,72.78.2,103.54,17.47,27.49,15.43,76.06,2,116.24-40.15,23.41-24.57,21.14-55.81,13.51-85C407.57,236.24,404.51,217.8,400.86,199.5Z" style="fill:#fff;opacity:0.7000000000000001"></path></g><g id="freepik--Shadow--inject-52"><path d="M441.41,423.48c0,3.12-85,5.66-189.82,5.66S61.76,426.6,61.76,423.48s85-5.66,189.83-5.66S441.41,420.36,441.41,423.48Z" style="fill:#F0C420"></path><path d="M441.41,423.48c0,3.12-85,5.66-189.82,5.66S61.76,426.6,61.76,423.48s85-5.66,189.83-5.66S441.41,420.36,441.41,423.48Z" style="fill:#fff;opacity:0.30000000000000004"></path></g><g id="freepik--Plants--inject-52"><path d="M405.07,314.51c0,.05,2.57-2.65,2.71-2.84,1.63-2.18,3.5-7.36,1.73-9.85a3.61,3.61,0,0,0-5.35-.46c-1.62,1.42-2,4.05-1.86,6.08C402.47,309.82,405.07,314.5,405.07,314.51Z" style="fill:#F0C420"></path><path d="M428.43,305.21c-2.5-1.75-7.66.16-9.83,1.8-.19.15-2.87,2.71-2.82,2.73l.06,0c-.82.3-1.69.62-2.64,1-1.74.7-3.7,1.52-5.78,2.54a67.73,67.73,0,0,0-6.54,3.64,47,47,0,0,0-6.66,5.06.46.46,0,0,0-.07.07c.44-.77,1.61-3,1.68-3.16,1-2.54,1.43-8-.93-9.95a3.62,3.62,0,0,0-5.29,1c-1.18,1.8-.86,4.43-.18,6.35.76,2.17,4.21,5.75,4.49,6a63.23,63.23,0,0,0-5.76,6.29c-1,1.29-2.05,2.62-3,4,.36-.68.68-1.3.71-1.39,1-2.53,1.43-8-.93-9.95a3.61,3.61,0,0,0-5.28,1c-1.19,1.79-.86,4.43-.19,6.34s3.57,5.07,4.34,5.88L382.64,336c-1.8,2.51-3.58,5-5.41,7.42-.64.85-1.3,1.67-2,2.48.32-.61.59-1.12.62-1.2,1-2.54,1.43-8-.93-10a3.61,3.61,0,0,0-5.29,1c-1.19,1.8-.86,4.43-.18,6.35s3.28,4.76,4.19,5.73c-.7.82-1.4,1.63-2.12,2.39-.5.51-.94,1-1.48,1.51l-1.53,1.44c-1,.88-2,1.8-3.05,2.64-.7.59-1.37,1.13-2,1.68.64-.83,1.88-2.5,2-2.65a14,14,0,0,0,1.64-6.88,4.74,4.74,0,0,0,.34-.72,3.62,3.62,0,0,0-2.39-4.82c-3-.73-7.1,2.9-8.53,5.22-.08.14-.84,1.72-1.29,2.73.17-.63.36-1.25.53-1.9.36-1.29.68-2.59,1-4,.14-.68.29-1.37.44-2.06s.24-1.43.37-2.15c.25-1.68.43-3.39.58-5.12,1.13.31,5.16,1.36,7.18,1s4.49-1.26,5.51-3.15a3.6,3.6,0,0,0-1.63-5.12c-2.82-1.18-7.45,1.79-9.22,3.86-.11.13-1.21,1.76-1.8,2.67.08-1,.16-2.08.21-3.14.12-3,.16-6.13.21-9.21,0-.94,0-1.88.06-2.82.4.11,5.17,1.46,7.43,1.11,2-.3,4.49-1.25,5.52-3.15a3.62,3.62,0,0,0-1.64-5.12c-2.81-1.17-7.45,1.8-9.22,3.87-.13.15-1.71,2.5-2.09,3.12.05-2.07.12-4.14.27-6.17a64.83,64.83,0,0,1,1.1-8.17c.19,0,5.16,1.48,7.48,1.12,2-.3,4.48-1.25,5.51-3.15a3.62,3.62,0,0,0-1.63-5.12c-2.82-1.17-7.46,1.79-9.22,3.87-.12.13-1.33,1.92-1.88,2.78l-.16-.06a46.16,46.16,0,0,1,2.57-7.89c.58-1.41,1.21-2.72,1.86-4,.9.36,5,2,7.14,1.88s4.6-.76,5.83-2.53a3.62,3.62,0,0,0-1.06-5.27c-2.67-1.47-7.61,1-9.59,2.83-.11.1-1.09,1.25-1.8,2.1.3-.56.6-1.15.9-1.69,1.12-2,2.26-3.8,3.29-5.37.59-.88,1.14-1.67,1.67-2.41,1.06-.1,5.36-.59,7.17-1.62s3.73-2.79,4-4.93a3.6,3.6,0,0,0-3.37-4.18c-3.05-.08-6.3,4.35-7.2,6.92-.08.23-.9,3.84-.85,3.83h.07q-.78,1-1.65,2.28c-1.07,1.55-2.26,3.31-3.42,5.31a65,65,0,0,0-3.45,6.64,48,48,0,0,0-2.77,7.9.3.3,0,0,1,0,.1c0-.89-.3-3.38-.34-3.57-.56-2.66-3.23-7.48-6.26-7.78a3.61,3.61,0,0,0-3.88,3.72c0,2.15,1.73,4.17,3.35,5.39,1.83,1.39,6.68,2.48,7.07,2.56a65,65,0,0,0-1.33,8.43c-.15,1.65-.26,3.31-.35,5-.07-.77-.14-1.46-.16-1.55-.57-2.67-3.24-7.48-6.27-7.79a3.61,3.61,0,0,0-3.88,3.72c0,2.15,1.73,4.17,3.35,5.4s5.77,2.25,6.86,2.51c0,.64-.06,1.28-.08,1.92-.12,3.08-.22,6.16-.41,9.17-.07,1.06-.18,2.11-.28,3.15-.06-.68-.13-1.26-.14-1.34-.57-2.67-3.24-7.48-6.27-7.79a3.61,3.61,0,0,0-3.88,3.72c0,2.16,1.73,4.17,3.35,5.4s5.37,2.16,6.66,2.46c-.13,1.07-.27,2.14-.45,3.16-.14.7-.22,1.39-.4,2.08l-.48,2c-.36,1.29-.71,2.63-1.09,3.88-.26.87-.52,1.7-.78,2.54.08-1.06.19-3.13.18-3.31-.15-2.71-2.06-7.88-5-8.64a3.61,3.61,0,0,0-4.39,3.09c-.33,2.13,1.07,4.38,2.49,5.84s6,3.37,6.56,3.59c-.44,1.38-.87,2.71-1.3,4-1.49,4.35-2.89,7.92-3.9,10.4,0,.09-.07.17-.11.25l1.82,1c.06-.16.13-.32.19-.49,1-2.53,2.31-6.17,3.71-10.6.45-1.4.9-2.9,1.35-4.45a38.8,38.8,0,0,0,4.6.3c.55,2.23,3.1,5.89,3.43,6.36-1.12.91-2.22,1.79-3.27,2.6-3.64,2.81-6.78,5-9,6.52l-.26.18,2,1.1c2.16-1.55,5-3.7,8.37-6.38,1.14-.92,2.35-1.93,3.57-3,.45.38,4.1,3.48,6.26,4.1,1.95.56,4.6.74,6.32-.55a3.61,3.61,0,0,0,.66-5.33c-2.06-2.25-7.51-1.5-10-.36-.14.07-1.64,1-2.58,1.56.5-.43,1-.84,1.49-1.29,1-.87,2-1.78,3.06-2.76l1.5-1.47c.51-.49,1-1.06,1.5-1.59,1.14-1.26,2.23-2.59,3.3-3.95.78.88,3.57,4,5.42,4.84s4.44,1.42,6.34.41a3.62,3.62,0,0,0,1.46-5.17c-1.7-2.53-7.2-2.62-9.82-1.87-.17.05-2,.8-3,1.23.63-.82,1.28-1.64,1.89-2.5,1.79-2.47,3.52-5,5.26-7.56l1.61-2.32c.27.31,3.51,4.07,5.59,5,1.84.85,4.43,1.43,6.33.41a3.6,3.6,0,0,0,1.46-5.17c-1.7-2.53-7.2-2.62-9.82-1.86-.19.05-2.81,1.14-3.46,1.45,1.18-1.7,2.38-3.39,3.63-5a61.82,61.82,0,0,1,5.42-6.21c.13.15,3.49,4.08,5.61,5.06,1.85.86,4.44,1.43,6.34.42a3.61,3.61,0,0,0,1.46-5.17c-1.7-2.54-7.2-2.62-9.82-1.87-.17.05-2.16.88-3.1,1.29l-.1-.15a46.79,46.79,0,0,1,6.49-5.15c1.27-.86,2.52-1.61,3.76-2.3.55.79,3.1,4.4,4.92,5.5s4.25,1.91,6.25,1.11a3.61,3.61,0,0,0,2-5c-1.41-2.71-6.87-3.39-9.55-2.93-.15,0-1.61.44-2.66.76l1.68-.92c2.05-1.06,4-1.92,5.71-2.66,1-.41,1.88-.77,2.72-1.09.95.5,4.79,2.47,6.87,2.6s4.66-.27,6.06-1.9A3.61,3.61,0,0,0,428.43,305.21Z" style="fill:#F0C420"></path><path d="M358.19,287.36c1.45,1.9,6.2,4.37,6.21,4.37s.68-3.62.69-3.86c.16-2.72-1.14-8.06-4-9.16a3.61,3.61,0,0,0-4.72,2.57C355.81,283.35,357,285.75,358.19,287.36Z" style="fill:#F0C420"></path><g style="opacity:0.5"><path d="M405.07,314.51c0,.05,2.57-2.65,2.71-2.84,1.63-2.18,3.5-7.36,1.73-9.85a3.61,3.61,0,0,0-5.35-.46c-1.62,1.42-2,4.05-1.86,6.08C402.47,309.82,405.07,314.5,405.07,314.51Z" style="fill:#fff"></path><path d="M428.43,305.21c-2.5-1.75-7.66.16-9.83,1.8-.19.15-2.87,2.71-2.82,2.73l.06,0c-.82.3-1.69.62-2.64,1-1.74.7-3.7,1.52-5.78,2.54a67.73,67.73,0,0,0-6.54,3.64,47,47,0,0,0-6.66,5.06.46.46,0,0,0-.07.07c.44-.77,1.61-3,1.68-3.16,1-2.54,1.43-8-.93-9.95a3.62,3.62,0,0,0-5.29,1c-1.18,1.8-.86,4.43-.18,6.35.76,2.17,4.21,5.75,4.49,6a63.23,63.23,0,0,0-5.76,6.29c-1,1.29-2.05,2.62-3,4,.36-.68.68-1.3.71-1.39,1-2.53,1.43-8-.93-9.95a3.61,3.61,0,0,0-5.28,1c-1.19,1.79-.86,4.43-.19,6.34s3.57,5.07,4.34,5.88L382.64,336c-1.8,2.51-3.58,5-5.41,7.42-.64.85-1.3,1.67-2,2.48.32-.61.59-1.12.62-1.2,1-2.54,1.43-8-.93-10a3.61,3.61,0,0,0-5.29,1c-1.19,1.8-.86,4.43-.18,6.35s3.28,4.76,4.19,5.73c-.7.82-1.4,1.63-2.12,2.39-.5.51-.94,1-1.48,1.51l-1.53,1.44c-1,.88-2,1.8-3.05,2.64-.7.59-1.37,1.13-2,1.68.64-.83,1.88-2.5,2-2.65a14,14,0,0,0,1.64-6.88,4.74,4.74,0,0,0,.34-.72,3.62,3.62,0,0,0-2.39-4.82c-3-.73-7.1,2.9-8.53,5.22-.08.14-.84,1.72-1.29,2.73.17-.63.36-1.25.53-1.9.36-1.29.68-2.59,1-4,.14-.68.29-1.37.44-2.06s.24-1.43.37-2.15c.25-1.68.43-3.39.58-5.12,1.13.31,5.16,1.36,7.18,1s4.49-1.26,5.51-3.15a3.6,3.6,0,0,0-1.63-5.12c-2.82-1.18-7.45,1.79-9.22,3.86-.11.13-1.21,1.76-1.8,2.67.08-1,.16-2.08.21-3.14.12-3,.16-6.13.21-9.21,0-.94,0-1.88.06-2.82.4.11,5.17,1.46,7.43,1.11,2-.3,4.49-1.25,5.52-3.15a3.62,3.62,0,0,0-1.64-5.12c-2.81-1.17-7.45,1.8-9.22,3.87-.13.15-1.71,2.5-2.09,3.12.05-2.07.12-4.14.27-6.17a64.83,64.83,0,0,1,1.1-8.17c.19,0,5.16,1.48,7.48,1.12,2-.3,4.48-1.25,5.51-3.15a3.62,3.62,0,0,0-1.63-5.12c-2.82-1.17-7.46,1.79-9.22,3.87-.12.13-1.33,1.92-1.88,2.78l-.16-.06a46.16,46.16,0,0,1,2.57-7.89c.58-1.41,1.21-2.72,1.86-4,.9.36,5,2,7.14,1.88s4.6-.76,5.83-2.53a3.62,3.62,0,0,0-1.06-5.27c-2.67-1.47-7.61,1-9.59,2.83-.11.1-1.09,1.25-1.8,2.1.3-.56.6-1.15.9-1.69,1.12-2,2.26-3.8,3.29-5.37.59-.88,1.14-1.67,1.67-2.41,1.06-.1,5.36-.59,7.17-1.62s3.73-2.79,4-4.93a3.6,3.6,0,0,0-3.37-4.18c-3.05-.08-6.3,4.35-7.2,6.92-.08.23-.9,3.84-.85,3.83h.07q-.78,1-1.65,2.28c-1.07,1.55-2.26,3.31-3.42,5.31a65,65,0,0,0-3.45,6.64,48,48,0,0,0-2.77,7.9.3.3,0,0,1,0,.1c0-.89-.3-3.38-.34-3.57-.56-2.66-3.23-7.48-6.26-7.78a3.61,3.61,0,0,0-3.88,3.72c0,2.15,1.73,4.17,3.35,5.39,1.83,1.39,6.68,2.48,7.07,2.56a65,65,0,0,0-1.33,8.43c-.15,1.65-.26,3.31-.35,5-.07-.77-.14-1.46-.16-1.55-.57-2.67-3.24-7.48-6.27-7.79a3.61,3.61,0,0,0-3.88,3.72c0,2.15,1.73,4.17,3.35,5.4s5.77,2.25,6.86,2.51c0,.64-.06,1.28-.08,1.92-.12,3.08-.22,6.16-.41,9.17-.07,1.06-.18,2.11-.28,3.15-.06-.68-.13-1.26-.14-1.34-.57-2.67-3.24-7.48-6.27-7.79a3.61,3.61,0,0,0-3.88,3.72c0,2.16,1.73,4.17,3.35,5.4s5.37,2.16,6.66,2.46c-.13,1.07-.27,2.14-.45,3.16-.14.7-.22,1.39-.4,2.08l-.48,2c-.36,1.29-.71,2.63-1.09,3.88-.26.87-.52,1.7-.78,2.54.08-1.06.19-3.13.18-3.31-.15-2.71-2.06-7.88-5-8.64a3.61,3.61,0,0,0-4.39,3.09c-.33,2.13,1.07,4.38,2.49,5.84s6,3.37,6.56,3.59c-.44,1.38-.87,2.71-1.3,4-1.49,4.35-2.89,7.92-3.9,10.4,0,.09-.07.17-.11.25l1.82,1c.06-.16.13-.32.19-.49,1-2.53,2.31-6.17,3.71-10.6.45-1.4.9-2.9,1.35-4.45a38.8,38.8,0,0,0,4.6.3c.55,2.23,3.1,5.89,3.43,6.36-1.12.91-2.22,1.79-3.27,2.6-3.64,2.81-6.78,5-9,6.52l-.26.18,2,1.1c2.16-1.55,5-3.7,8.37-6.38,1.14-.92,2.35-1.93,3.57-3,.45.38,4.1,3.48,6.26,4.1,1.95.56,4.6.74,6.32-.55a3.61,3.61,0,0,0,.66-5.33c-2.06-2.25-7.51-1.5-10-.36-.14.07-1.64,1-2.58,1.56.5-.43,1-.84,1.49-1.29,1-.87,2-1.78,3.06-2.76l1.5-1.47c.51-.49,1-1.06,1.5-1.59,1.14-1.26,2.23-2.59,3.3-3.95.78.88,3.57,4,5.42,4.84s4.44,1.42,6.34.41a3.62,3.62,0,0,0,1.46-5.17c-1.7-2.53-7.2-2.62-9.82-1.87-.17.05-2,.8-3,1.23.63-.82,1.28-1.64,1.89-2.5,1.79-2.47,3.52-5,5.26-7.56l1.61-2.32c.27.31,3.51,4.07,5.59,5,1.84.85,4.43,1.43,6.33.41a3.6,3.6,0,0,0,1.46-5.17c-1.7-2.53-7.2-2.62-9.82-1.86-.19.05-2.81,1.14-3.46,1.45,1.18-1.7,2.38-3.39,3.63-5a61.82,61.82,0,0,1,5.42-6.21c.13.15,3.49,4.08,5.61,5.06,1.85.86,4.44,1.43,6.34.42a3.61,3.61,0,0,0,1.46-5.17c-1.7-2.54-7.2-2.62-9.82-1.87-.17.05-2.16.88-3.1,1.29l-.1-.15a46.79,46.79,0,0,1,6.49-5.15c1.27-.86,2.52-1.61,3.76-2.3.55.79,3.1,4.4,4.92,5.5s4.25,1.91,6.25,1.11a3.61,3.61,0,0,0,2-5c-1.41-2.71-6.87-3.39-9.55-2.93-.15,0-1.61.44-2.66.76l1.68-.92c2.05-1.06,4-1.92,5.71-2.66,1-.41,1.88-.77,2.72-1.09.95.5,4.79,2.47,6.87,2.6s4.66-.27,6.06-1.9A3.61,3.61,0,0,0,428.43,305.21Z" style="fill:#fff"></path><path d="M358.19,287.36c1.45,1.9,6.2,4.37,6.21,4.37s.68-3.62.69-3.86c.16-2.72-1.14-8.06-4-9.16a3.61,3.61,0,0,0-4.72,2.57C355.81,283.35,357,285.75,358.19,287.36Z" style="fill:#fff"></path></g><path d="M355.19,338.39s-16.69-40.25-26-38.5,16,64.17,16,64.17-29.38-55.42-49.41-55.42,7.34,61.25,32.72,81.67c0,0-40.07-43.17-63.44-33.83s46.75,53.08,46.75,53.08-40.74-12.83-36.06-2.91,17.36,11.66,17.36,11.66L247,420.65H407.28l-36.06-3.5s37.39-18.67,27.38-26.25-32.06,8.75-32.06,8.75,38.07-42,30.72-57.76-40.07,28.59-40.07,28.59,26.72-56.59,21.37-66.51S355.19,338.39,355.19,338.39Z" style="fill:#F0C420"></path><path d="M355.19,338.39s-16.69-40.25-26-38.5,16,64.17,16,64.17-29.38-55.42-49.41-55.42,7.34,61.25,32.72,81.67c0,0-40.07-43.17-63.44-33.83s46.75,53.08,46.75,53.08-40.74-12.83-36.06-2.91,17.36,11.66,17.36,11.66L247,420.65H407.28l-36.06-3.5s37.39-18.67,27.38-26.25-32.06,8.75-32.06,8.75,38.07-42,30.72-57.76-40.07,28.59-40.07,28.59,26.72-56.59,21.37-66.51S355.19,338.39,355.19,338.39Z" style="fill:#fff;opacity:0.5"></path><path d="M360.53,340.51c-14.69,43.41-14.69,74.13-14.69,74.13s17.36.66,35.39-12.69" style="fill:none;stroke:#263238;stroke-linecap:round;stroke-linejoin:round"></path><path d="M353.19,363.89a260.35,260.35,0,0,0-12-38.07" style="fill:none;stroke:#263238;stroke-linecap:round;stroke-linejoin:round"></path><path d="M309.78,338.51l37.4,55.43s25.37-21.37,34.05-33.39" style="fill:none;stroke:#263238;stroke-linecap:round;stroke-linejoin:round"></path><path d="M346.51,407.29s-39.4-18.7-55.43-29.38" style="fill:none;stroke:#263238;stroke-linecap:round;stroke-linejoin:round"></path></g><g id="freepik--Device--inject-52"><rect x="174.58" y="121.5" width="167.9" height="302.59" rx="6.75" style="fill:#263238;stroke:#263238;stroke-miterlimit:10"></rect><path d="M270.14,139.58h-20.9a2.15,2.15,0,0,1-2.15-2.15h0a2.14,2.14,0,0,1,2.15-2.14h20.9a2.14,2.14,0,0,1,2.14,2.14h0A2.14,2.14,0,0,1,270.14,139.58Z" style="fill:#F0C420"></path><path d="M331.87,397.05H185.19V139.83H220l3.91,3.24a7.56,7.56,0,0,0,4.86,1.76h61.34a7.64,7.64,0,0,0,5-1.9l3.53-3.1h33.24Z" style="fill:#fff"></path><g style="clip-path:url(#freepik--clip-path--inject-52)"><path d="M295.1,142.93a7.64,7.64,0,0,1-5,1.9H228.73a7.56,7.56,0,0,1-4.86-1.76L220,139.83H185.19V168H331.87v-28.2H298.63Z" style="fill:#F0C420"></path></g><path d="M331.87,397.05H185.19V139.83H220l3.91,3.24a7.56,7.56,0,0,0,4.86,1.76h61.34a7.64,7.64,0,0,0,5-1.9l3.53-3.1h33.24Z" style="fill:none;stroke:#263238;stroke-linecap:round;stroke-linejoin:round;stroke-width:0.938618px"></path><rect x="196.55" y="170.9" width="124.4" height="211.82" style="fill:#fff"></rect><path d="M263.22,405a3.34,3.34,0,1,0-3.34,3.33A3.35,3.35,0,0,0,263.22,405Z" style="fill:#F0C420"></path><circle cx="258.69" cy="230.23" r="56.94" transform="translate(-87.03 250.35) rotate(-45)" style="fill:#F0C420"></circle><g style="clip-path:url(#freepik--clip-path-2--inject-52)"><path d="M244.9,239.28s3.47,8.83,2.52,15.14-4.42,9.79-12,13.57-19.56,9.15-20.83,12.94,0,21.51,0,21.51h92.77s-2.21-18.35-6.94-24.67-23.66-11.35-29-14.83-3.15-23.35-3.15-23.35S254.05,244,244.9,239.28Z" style="fill:#fff;stroke:#263238;stroke-linecap:round;stroke-linejoin:round"></path><path d="M234,268.73c-1.72.84-3.61,1.76-5.5,2.7,3.29,10,.25,22.71-2.56,31h65.7a24.53,24.53,0,0,1-2.09-6.94c-1.07-7.51-.36-18.85.14-24.7-2.22-1-4.55-1.95-6.81-2.85-3.29,7.79-11.52,22.92-25.33,21.05C243.86,287.16,236.75,275,234,268.73Z" style="fill:#263238;stroke:#263238;stroke-linecap:round;stroke-linejoin:round"></path><path d="M229.12,244.33S231,249.06,238,250s3.54-9.22,24.22-9.93c14.56-.5.08,11.5,3.24,12.14s11-.32,15.46-10.73,5.36-36.92-3.79-45.44-36-8.21-40.07-.63-1.27,20.82-5,28.08S226.59,240.54,229.12,244.33Z" style="fill:#263238;stroke:#263238;stroke-linecap:round;stroke-linejoin:round"></path><path d="M238,220s-2.52-6.63-3.47-1.89,0,9.46,2.21,11.36,3.47,1.57,3.47,1.57Z" style="fill:#fff;stroke:#263238;stroke-linecap:round;stroke-linejoin:round"></path><path d="M247.93,186.23s-5.33,1.33-8.89,11.11-.78,35.48,1.44,38.15,9.61,13.76,16.72,14.2c4.53.28,15.89-10.13,17.67-15.46s2.4-29.33,1.06-35.11S263.49,180,247.93,186.23Z" style="fill:#fff;stroke:#263238;stroke-linecap:round;stroke-linejoin:round"></path><path d="M251.18,217.82a1.46,1.46,0,1,1-1.45-1.46A1.45,1.45,0,0,1,251.18,217.82Z" style="fill:#263238"></path><path d="M265.69,217.82a1.46,1.46,0,1,1-1.46-1.46A1.45,1.45,0,0,1,265.69,217.82Z" style="fill:#263238"></path><path d="M251.54,232.81s4.73,2.66,11.51,0" style="fill:none;stroke:#263238;stroke-linecap:round;stroke-linejoin:round"></path><path d="M260.1,223.08s2.07,2.65,0,4.13a5.91,5.91,0,0,1-6.2.29c-1.77-.88.3-4.72.3-4.72" style="fill:none;stroke:#263238;stroke-linecap:round;stroke-linejoin:round"></path><path d="M252.27,211.13a6.69,6.69,0,0,0-7.19-1.75c-4.49,1.5-4.71,5.23-4.71,5.23s2.73-3.48,5.17-3.52S251.45,213.79,252.27,211.13Z" style="fill:#263238"></path><path d="M260.4,211.46a6.66,6.66,0,0,1,7.07-2.13c4.57,1.25,5,5,5,5s-2.93-3.32-5.36-3.23S261.36,214.08,260.4,211.46Z" style="fill:#263238"></path><path d="M252.47,194.16S244.58,192,241.42,197s-1.57,14.83-6.31,23.66-1.89,22.4-1.26,24.3-4.1,4.42-6.62-5.05,4.73-18.62,5.36-28.4S231,191,240.79,185.32s11.68-2.21,11.68-2.21Z" style="fill:#263238;stroke:#263238;stroke-linecap:round;stroke-linejoin:round"></path><path d="M291.28,209c-1.89-5.68-1.58-16.1-9.15-24.62-4.75-5.34-13.83-8.44-21.28-8.62a12.52,12.52,0,0,0-3.65-.21c-12,1-19.56,7.26-17.35,12s12.62,6.63,12.62,6.63l1.58.63a12.91,12.91,0,0,1-.06-1.61c1.7-.79,4.6-1.31,7.63,1.92a32.25,32.25,0,0,1,8.2,21.46c-.31,12,5.68,16.41,5.68,21.46s-8.83,11.36-10.73,12.94c-2.1,1.75,8,2.61,8.63,2.57,10.17-.63,16.93-7.27,21.17-16.13C299.56,227,294.54,218.77,291.28,209Z" style="fill:#263238;stroke:#263238;stroke-linecap:round;stroke-linejoin:round"></path><path d="M279.82,246.72a7.4,7.4,0,0,1-1.79,2" style="fill:none;stroke:#fff;stroke-linecap:round;stroke-linejoin:round"></path><path d="M252.47,192.89s-7.57-4.1-1.26-7.25,18,6.62,20.82,15.77.63,19.57,4.74,26.82c1.94,3.45,4.46,9.17,4.27,14" style="fill:none;stroke:#fff;stroke-linecap:round;stroke-linejoin:round"></path><path d="M246.84,187.28c-.24-.87.24-2.12,2.47-3.85,5.68-4.42,16.1-2.21,21.46,3.47s7.26,12.62,7.89,20.82S280.55,221,285,226s6.94,10.41,2.52,16.72" style="fill:none;stroke:#fff;stroke-linecap:round;stroke-linejoin:round"></path><path d="M246.47,192.89s-8.83-3.78-3.78-8.52" style="fill:none;stroke:#fff;stroke-linecap:round;stroke-linejoin:round"></path><path d="M235.41,243.65a10,10,0,0,0,2.54,2.57" style="fill:none;stroke:#fff;stroke-linecap:round;stroke-linejoin:round"></path><path d="M233.54,224.45s-2.22,9.43.42,16.4" style="fill:none;stroke:#fff;stroke-linecap:round;stroke-linejoin:round"></path><path d="M279.36,190A34.53,34.53,0,0,1,284,203.62c1.26,11.36-2.21,15.15,3.16,21.14a13.88,13.88,0,0,1,3.78,9.16" style="fill:none;stroke:#fff;stroke-linecap:round;stroke-linejoin:round"></path><path d="M275.5,184.69s.46.47,1.16,1.36" style="fill:none;stroke:#fff;stroke-linecap:round;stroke-linejoin:round"></path></g><circle cx="303.8" cy="272.91" r="13.2" style="fill:#263238"></circle><path d="M310.48,269.12H310a1.69,1.69,0,0,1-1.69-1.68,1.69,1.69,0,0,0-1.68-1.69H301a1.69,1.69,0,0,0-1.69,1.69,1.68,1.68,0,0,1-1.68,1.68h-.48a1.69,1.69,0,0,0-1.69,1.69v7.58a1.69,1.69,0,0,0,1.69,1.69h13.36a1.69,1.69,0,0,0,1.68-1.69v-7.58A1.69,1.69,0,0,0,310.48,269.12Zm-6.68,10.3a5.37,5.37,0,1,1,5.36-5.36A5.38,5.38,0,0,1,303.8,279.42Z" style="fill:#fff"></path><circle cx="303.8" cy="274.06" r="4.26" style="fill:#fff"></circle><line x1="211.5" y1="304.11" x2="230" y2="304.11" style="fill:none;stroke:#263238;stroke-linecap:round;stroke-linejoin:round"></line><line x1="211.5" y1="351.11" x2="230" y2="351.11" style="fill:none;stroke:#263238;stroke-linecap:round;stroke-linejoin:round"></line><line x1="211.5" y1="311.11" x2="279.5" y2="311.11" style="fill:none;stroke:#263238;stroke-linecap:round;stroke-linejoin:round;stroke-width:2px"></line><line x1="211.5" y1="358.11" x2="279.5" y2="358.11" style="fill:none;stroke:#263238;stroke-linecap:round;stroke-linejoin:round;stroke-width:2px"></line><line x1="211.5" y1="377.61" x2="230" y2="377.61" style="fill:none;stroke:#263238;stroke-linecap:round;stroke-linejoin:round"></line><line x1="211.5" y1="384.61" x2="279.5" y2="384.61" style="fill:none;stroke:#263238;stroke-linecap:round;stroke-linejoin:round;stroke-width:2px"></line><line x1="211.5" y1="321.11" x2="317" y2="321.11" style="fill:none;stroke:#263238;stroke-linecap:round;stroke-linejoin:round"></line><line x1="211.5" y1="326.11" x2="317" y2="326.11" style="fill:none;stroke:#263238;stroke-linecap:round;stroke-linejoin:round"></line><line x1="211.5" y1="331.11" x2="317" y2="331.11" style="fill:none;stroke:#263238;stroke-linecap:round;stroke-linejoin:round"></line><circle cx="199.13" cy="301.61" r="4" style="fill:#263238"></circle><path d="M199.13,306.61c-3.43,0-6.26,2.18-6.69,5h13.37C205.38,308.79,202.55,306.61,199.13,306.61Z" style="fill:#263238"></path><path d="M198.72,374.61a6.25,6.25,0,1,0,6.25,6.25A6.25,6.25,0,0,0,198.72,374.61Zm-2.2,1.66.84-.56a.21.21,0,0,1,.28.06l1.47,2.4a.2.2,0,0,1-.07.28l-.94.55a.2.2,0,0,1-.27-.08l-1.37-2.39A.2.2,0,0,1,196.52,376.27Zm4.57,9.2a2.24,2.24,0,0,1-1.1.31c-.63,0-1.23-.61-1.86-1.24a20.51,20.51,0,0,1-2.3-3.39,6.47,6.47,0,0,1-.75-3.5,2.07,2.07,0,0,1,.89-1,.2.2,0,0,1,.29.07l1.25,2.13a.19.19,0,0,1,0,.24,1.35,1.35,0,0,0-.31.55A3.86,3.86,0,0,0,198,382c.57.68,1.07,1,1.35,1a1.4,1.4,0,0,0,.38,0,.21.21,0,0,1,.23.1l1.22,2.11A.2.2,0,0,1,201.09,385.47Zm1.55-.77-.94.55a.2.2,0,0,1-.27-.08l-1.37-2.39a.2.2,0,0,1,.06-.26L201,382a.21.21,0,0,1,.28.06l1.47,2.4A.2.2,0,0,1,202.64,384.7Z" style="fill:#263238"></path><path d="M199,349.38a5.37,5.37,0,1,0,5.37,5.37A5.38,5.38,0,0,0,199,349.38Zm.51,8.61a.78.78,0,0,1-.19.56.66.66,0,0,1-.49.2.69.69,0,0,1-.5-.2.81.81,0,0,1-.19-.56V354a.81.81,0,0,1,.19-.56.66.66,0,0,1,.5-.21.64.64,0,0,1,.49.21.76.76,0,0,1,.19.56Zm-.11-6a.89.89,0,0,1-1.15,0,.71.71,0,0,1-.22-.55.7.7,0,0,1,.22-.54.81.81,0,0,1,.58-.21.77.77,0,0,1,.57.21.7.7,0,0,1,.22.54A.71.71,0,0,1,199.44,352Z" style="fill:#263238"></path></g></svg>